<?xml version="1.0" encoding="UTF-8" standalone="no"?>
<!-- Created with Inkscape (http://www.inkscape.org/) -->

<svg
   xmlns:dc="http://purl.org/dc/elements/1.1/"
   xmlns:cc="http://creativecommons.org/ns#"
   xmlns:rdf="http://www.w3.org/1999/02/22-rdf-syntax-ns#"
   xmlns:svg="http://www.w3.org/2000/svg"
   xmlns="http://www.w3.org/2000/svg"
   xmlns:sodipodi="http://sodipodi.sourceforge.net/DTD/sodipodi-0.dtd"
   xmlns:inkscape="http://www.inkscape.org/namespaces/inkscape"
   width="744.09448819"
   height="1052.3622047"
   id="svg2"
   version="1.1"
   inkscape:version="0.48.4 r9939"
   sodipodi:docname="loguruLogo.svg">
  <defs
     id="defs4" />
  <sodipodi:namedview
     id="base"
     pagecolor="#ffffff"
     bordercolor="#666666"
     borderopacity="1.0"
     inkscape:pageopacity="0.0"
     inkscape:pageshadow="2"
     inkscape:zoom="0.7"
     inkscape:cx="465.01164"
     inkscape:cy="774.17875"
     inkscape:document-units="px"
     inkscape:current-layer="layer1"
     showgrid="false"
     inkscape:snap-global="false"
     inkscape:window-width="1301"
     inkscape:window-height="744"
     inkscape:window-x="65"
     inkscape:window-y="24"
     inkscape:window-maximized="1"
     objecttolerance="50"
     guidetolerance="50"
     inkscape:object-paths="true"
     inkscape:snap-intersection-paths="true"
     inkscape:object-nodes="true"
     inkscape:snap-smooth-nodes="true" />
  <metadata
     id="metadata7">
    <rdf:RDF>
      <cc:Work
         rdf:about="">
        <dc:format>image/svg+xml</dc:format>
        <dc:type
           rdf:resource="http://purl.org/dc/dcmitype/StillImage" />
        <dc:title></dc:title>
      </cc:Work>
    </rdf:RDF>
  </metadata>
  <g
     inkscape:label="Layer 1"
     inkscape:groupmode="layer"
     id="layer1">
    <path
       style="fill:#deaa87;fill-rule:evenodd;stroke:#000000;stroke-width:1.00754416px;stroke-linecap:butt;stroke-linejoin:miter;stroke-opacity:1"
       d="m 300.99265,129.00887 c 0,18.67157 -15.63835,33.80786 -34.92926,33.80786 -19.29089,0 -34.92925,-15.13629 -34.92925,-33.80786 0,-18.67156 15.63836,-33.807854 34.92925,-33.807854 19.29091,0 34.92926,15.136294 34.92926,33.807854 z"
       id="path3020"
       inkscape:connector-curvature="0"
       sodipodi:nodetypes="sssss"
       inkscape:export-filename="/home/jrbauer/Desktop/path3149-4-1.png"
       inkscape:export-xdpi="90"
       inkscape:export-ydpi="90" />
    <path
       style="fill:#deaa87;fill-rule:evenodd;stroke:#000000;stroke-width:1.00754416px;stroke-linecap:butt;stroke-linejoin:miter;stroke-opacity:1"
       d="m 506.20202,92.828536 c 20.26909,0 34.92925,15.136294 34.92925,33.807864 0,18.67156 -15.63835,33.80785 -34.92925,33.80785"
       id="path3072"
       inkscape:connector-curvature="0"
       sodipodi:nodetypes="csc"
       inkscape:export-filename="/home/jrbauer/Desktop/path3149-4-1.png"
       inkscape:export-xdpi="90"
       inkscape:export-ydpi="90" />
    <path
       style="fill:none;stroke:#000000;stroke-width:1.00754416px;stroke-linecap:butt;stroke-linejoin:miter;stroke-opacity:1"
       d="m 266.06339,95.201016 240.13863,-2.37248"
       id="path3078"
       inkscape:connector-curvature="0"
       sodipodi:nodetypes="cc"
       inkscape:export-filename="/home/jrbauer/Desktop/path3149-4-1.png"
       inkscape:export-xdpi="90"
       inkscape:export-ydpi="90" />
    <path
       style="fill:none;stroke:#000000;stroke-width:1.00754416px;stroke-linecap:butt;stroke-linejoin:miter;stroke-opacity:1"
       d="m 266.06339,162.81673 240.13863,-2.37248"
       id="path3080"
       inkscape:connector-curvature="0"
       sodipodi:nodetypes="cc"
       inkscape:export-filename="/home/jrbauer/Desktop/path3149-4-1.png"
       inkscape:export-xdpi="90"
       inkscape:export-ydpi="90" />
    <path
       style="fill:#deaa87"
       d="m 506.40603,126.53832 c 0,-18.26811 0.14736,-33.213734 0.32746,-33.212504 1.67792,0.0115 6.56962,0.75789 8.91966,1.36102 19.39295,4.97719 29.74062,26.180244 21.91247,44.900124 -1.45926,3.48959 -5.7076,9.1858 -8.84724,11.86241 -5.76341,4.91346 -14.1975,8.30368 -20.65762,8.30368 l -1.65473,0 0,-33.21473 z"
       id="path3082"
       inkscape:connector-curvature="0"
       inkscape:export-filename="/home/jrbauer/Desktop/path3149-4-1.png"
       inkscape:export-xdpi="90"
       inkscape:export-ydpi="90" />
    <path
       style="fill:#deaa87"
       d="m 506.40603,126.53832 c 0,-18.26811 0.14736,-33.213734 0.32746,-33.212504 0.18011,8.3e-4 1.60456,0.13956 3.16547,0.30742 14.81668,1.59324 26.11098,11.341284 29.53044,25.487554 0.89613,3.70724 0.89613,11.12782 0,14.83505 -1.56691,6.48231 -5.68582,13.20944 -10.71102,17.49353 -5.76341,4.91346 -14.1975,8.30368 -20.65762,8.30368 l -1.65473,0 0,-33.21473 z"
       id="path3084"
       inkscape:connector-curvature="0"
       inkscape:export-filename="/home/jrbauer/Desktop/path3149-4-1.png"
       inkscape:export-xdpi="90"
       inkscape:export-ydpi="90" />
    <path
       style="fill:#28220b"
       d="m 278.26121,161.35895 c 10.80703,-3.95382 18.73113,-12.09283 22.15325,-22.75407 1.32819,-4.13783 1.43424,-14.6751 0.18712,-18.59089 -1.69042,-5.30763 -5.11548,-11.28013 -8.23353,-14.35736 -4.14733,-4.09304 -9.57695,-7.509994 -14.42662,-9.078934 l -2.51596,-0.81395 11.9032,-0.18895 c 6.54676,-0.10392 53.65458,-0.5801 104.68405,-1.05818 51.02946,-0.47807 97.54541,-0.94797 103.36877,-1.0442 l 10.58792,-0.17498 0,33.214384 0,33.21435 -1.41899,0.13916 c -0.78045,0.0766 -46.31402,0.55548 -101.18571,1.06432 -54.87167,0.50884 -105.95571,0.99223 -113.52007,1.07419 l -13.7534,0.14901 2.16997,-0.7939 z"
       id="path3088"
       inkscape:connector-curvature="0"
       inkscape:export-filename="/home/jrbauer/Desktop/path3149-4-1.png"
       inkscape:export-xdpi="90"
       inkscape:export-ydpi="90" />
    <path
       style="fill:#28220b"
       d="m 506.40603,126.53832 c 0,-26.3796 0.11236,-33.212614 0.54578,-33.204394 0.30016,0.006 2.01933,0.19072 3.82038,0.4112 15.821,1.93669 27.49073,13.618684 29.23989,29.270634 0.44217,3.95657 -0.011,9.29121 -1.09458,12.90218 -2.3353,7.77808 -8.30053,15.19323 -15.52729,19.30142 -4.68908,2.66559 -11.00555,4.53369 -15.32945,4.53369 l -1.65473,0 0,-33.21473 z"
       id="path3090"
       inkscape:connector-curvature="0"
       inkscape:export-filename="/home/jrbauer/Desktop/path3149-4-1.png"
       inkscape:export-xdpi="90"
       inkscape:export-ydpi="90" />
    <path
       style="fill:#28220b"
       d="m 506.52495,110.82063 c 0,-0.73399 0.0852,-1.03426 0.18921,-0.66727 0.10403,0.367 0.10403,0.96753 0,1.33453 -0.10403,0.36699 -0.18921,0.0667 -0.18921,-0.66726 z"
       id="path3092"
       inkscape:connector-curvature="0"
       inkscape:export-filename="/home/jrbauer/Desktop/path3149-4-1.png"
       inkscape:export-xdpi="90"
       inkscape:export-ydpi="90" />
    <path
       style="fill:#28220b"
       d="m 279.95151,160.83116 c 6.50384,-2.78837 11.68285,-6.85383 15.54055,-12.19911 4.3744,-6.06124 6.11746,-11.62659 6.13268,-19.58075 0.0131,-6.80697 -1.03671,-11.02934 -4.12952,-16.61044 -3.69419,-6.66629 -10.06147,-12.18188 -17.60563,-15.250714 l -2.81619,-1.14556 2.34693,-0.1655 c 1.29081,-0.091 51.46619,-0.63458 111.50085,-1.20793 60.03465,-0.57333 110.48015,-1.10332 112.10108,-1.17775 l 2.94715,-0.13531 0,33.058494 c 0,26.1816 -0.11358,33.08485 -0.54575,33.18509 -0.59156,0.13718 -87.88784,1.06903 -166.67806,1.7792 -27.01559,0.24351 -51.90112,0.47883 -55.30115,0.52293 l -6.1819,0.0802 2.68896,-1.15284 z"
       id="path3094"
       inkscape:connector-curvature="0"
       inkscape:export-filename="/home/jrbauer/Desktop/path3149-4-1.png"
       inkscape:export-xdpi="90"
       inkscape:export-ydpi="90" />
    <path
       style="fill:#28220b"
       d="m 506.18031,126.53832 c 0,-18.34966 0.0524,-25.85634 0.11651,-16.68151 0.064,9.17483 0.064,24.18819 0,33.36301 -0.064,9.17483 -0.11651,1.66815 -0.11651,-16.6815 z"
       id="path3096"
       inkscape:connector-curvature="0"
       inkscape:export-filename="/home/jrbauer/Desktop/path3149-4-1.png"
       inkscape:export-xdpi="90"
       inkscape:export-ydpi="90" />
    <path
       style="fill:#28220b"
       d="m 506.03836,111.41374 c 0,-0.40776 0.0991,-0.57458 0.22021,-0.37069 0.12115,0.20389 0.12115,0.53751 0,0.7414 -0.12115,0.20388 -0.22021,0.037 -0.22021,-0.37071 z"
       id="path3098"
       inkscape:connector-curvature="0"
       inkscape:export-filename="/home/jrbauer/Desktop/path3149-4-1.png"
       inkscape:export-xdpi="90"
       inkscape:export-ydpi="90" />
    <path
       style="fill:#28220b"
       d=""
       id="path3100"
       inkscape:connector-curvature="0" />
    <path
       style="fill:#28220b"
       d=""
       id="path3102"
       inkscape:connector-curvature="0" />
    <path
       style="fill:#28220b"
       d=""
       id="path3104"
       inkscape:connector-curvature="0" />
    <path
       style="fill:#28220b"
       d=""
       id="path3106"
       inkscape:connector-curvature="0" />
    <path
       style="fill:#28220b"
       d="m 506.16251,101.92383 c 0,-4.811694 0.06,-6.780124 0.13344,-4.374274 0.0733,2.40584 0.0733,6.342694 0,8.748534 -0.0733,2.40584 -0.13344,0.43742 -0.13344,-4.37426 z"
       id="path3108"
       inkscape:connector-curvature="0"
       inkscape:export-filename="/home/jrbauer/Desktop/path3149-4-1.png"
       inkscape:export-xdpi="90"
       inkscape:export-ydpi="90" />
    <path
       style="fill:#28220b"
       d="m 279.25425,161.13668 c 11.9999,-5.03796 20.11555,-14.64229 21.96021,-25.98844 0.6815,-4.19177 0.31318,-12.65325 -0.68436,-15.72169 -3.33195,-10.24923 -10.68043,-18.15583 -20.67315,-22.243374 l -2.78355,-1.13859 2.34693,-0.16577 c 1.29081,-0.0912 51.36795,-0.63458 111.28254,-1.20756 59.91459,-0.573 110.36008,-1.10892 112.10109,-1.19095 l 3.16545,-0.14916 0,33.071974 c 0,26.19238 -0.11358,33.09832 -0.54575,33.19856 -0.59249,0.13742 -87.66211,1.06771 -166.24145,1.77619 -27.01559,0.24359 -52.01841,0.4851 -55.5618,0.53671 l -6.44254,0.0938 2.07638,-0.87173 0,0 z"
       id="path3110"
       inkscape:connector-curvature="0"
       inkscape:export-filename="/home/jrbauer/Desktop/path3149-4-1.png"
       inkscape:export-xdpi="90"
       inkscape:export-ydpi="90" />
    <path
       sodipodi:type="spiral"
       style="fill:none;stroke:#000000;stroke-width:2.8735406;stroke-linecap:butt;stroke-linejoin:miter;stroke-opacity:1;stroke-miterlimit:4;stroke-dasharray:none"
       id="path3112"
       sodipodi:cx="273.86179"
       sodipodi:cy="423.75497"
       sodipodi:expansion="1"
       sodipodi:revolution="3"
       sodipodi:radius="23.328884"
       sodipodi:argument="-18.108412"
       sodipodi:t0="0"
       d="m 273.86179,423.75497 c 0.86286,0.78969 -0.63878,1.55273 -1.31251,1.43414 -1.82578,-0.32137 -2.21898,-2.62433 -1.55577,-4.05915 1.18634,-2.56656 4.54251,-3.0097 6.8058,-1.6774 3.32147,1.95522 3.82247,6.48621 1.79902,9.55244 -2.69694,4.08681 -8.43889,4.64456 -12.29908,1.92066 -4.85765,-3.42776 -5.47144,-10.39586 -2.04228,-15.04573 4.15317,-5.63161 12.35522,-6.3011 17.79237,-2.16391 6.40749,4.87553 7.1325,14.31608 2.28554,20.53901 -5.59601,7.18462 -16.27794,7.96507 -23.28566,2.40717 -7.96261,-6.31523 -8.79844,-18.2405 -2.5288,-26.0323 7.03359,-8.74121 20.20358,-9.63241 28.77894,-2.65043 9.52028,7.75132 10.46683,22.16704 2.77206,31.52559"
       transform="matrix(1.2225239,0,0,1.2330058,-72.560496,-392.7535)"
       inkscape:export-filename="/home/jrbauer/Desktop/path3149-4-1.png"
       inkscape:export-xdpi="90"
       inkscape:export-ydpi="90" />
    <rect
       style="fill:#28220b"
       id="rect3116"
       width="62.872662"
       height="64.946671"
       x="443.76599"
       y="94.311356"
       inkscape:export-filename="/home/jrbauer/Desktop/path3149-4-1.png"
       inkscape:export-xdpi="90"
       inkscape:export-ydpi="90" />
    <rect
       style="fill:#28220b"
       id="rect3118"
       width="3.4929259"
       height="3.5587218"
       x="494.41339"
       y="139.3885"
       inkscape:export-filename="/home/jrbauer/Desktop/path3149-4-1.png"
       inkscape:export-xdpi="90"
       inkscape:export-ydpi="90" />
    <rect
       style="fill:#28220b"
       id="rect3120"
       width="23.140635"
       height="2.9656014"
       x="487.86414"
       y="94.607925"
       inkscape:export-filename="/home/jrbauer/Desktop/path3149-4-1.png"
       inkscape:export-xdpi="90"
       inkscape:export-ydpi="90" />
    <rect
       style="fill:#28220b"
       id="rect3122"
       width="34.492641"
       height="11.269285"
       x="475.63895"
       y="95.201004"
       inkscape:export-filename="/home/jrbauer/Desktop/path3149-4-1.png"
       inkscape:export-xdpi="90"
       inkscape:export-ydpi="90" />
    <path
       style="fill:none;stroke:#000000;stroke-width:2.501;stroke-linecap:butt;stroke-linejoin:miter;stroke-opacity:1;stroke-miterlimit:4;stroke-dasharray:none"
       d="m 319.33051,110.02905 c 5.21634,-2.36204 4.07069,-2.49567 9.60554,-2.9656 0.86649,-0.0736 1.78328,0.17043 2.6197,0 9.49672,-1.93513 3.14764,-1.77936 7.85908,-1.77936 0.87322,0 1.78005,-0.16294 2.61969,0 1.25165,0.2429 2.28429,0.85786 3.49293,1.18624 0.27025,0.0734 0.66741,-0.1398 0.87322,0 0.46024,0.3126 0.41301,0.87364 0.87324,1.18624 0.20583,0.1398 0.59085,-0.0479 0.87323,0 0.89299,0.15163 1.88332,0.218 2.61969,0.59312 0.5207,0.26525 0.41301,0.87364 0.87324,1.18624 1.571,1.06706 2.58764,0.29112 4.36616,0.59312 0.63143,0.10723 1.11503,0.4859 1.74646,0.59313 0.56477,0.0959 1.1643,0 1.74646,0 1.16431,0 2.32862,0 3.49292,0 0.32634,0 5.86223,0.0567 6.11262,0 0.99564,-0.22543 1.78011,-0.75854 2.6197,-1.18625 0.32932,-0.16776 0.47387,-0.52531 0.87323,-0.59312 8.15016,0 0.87323,0.59312 2.61969,-0.59312 0.20583,-0.1398 0.58216,0 0.87324,0 0.29107,0 0.58216,0 0.87323,0 1.12635,0 5.51943,-0.1343 6.11262,0 0.61747,0.1398 1.12899,0.45332 1.74646,0.59312 0.55229,0.12504 1.16431,0 1.74647,0 1.45538,0 2.91077,0 4.36615,0"
       id="path3129"
       inkscape:connector-curvature="0"
       inkscape:export-filename="/home/jrbauer/Desktop/path3149-4-1.png"
       inkscape:export-xdpi="90"
       inkscape:export-ydpi="90" />
    <path
       style="fill:none;stroke:#000000;stroke-width:2.508;stroke-linecap:butt;stroke-linejoin:miter;stroke-opacity:1;stroke-miterlimit:4;stroke-dasharray:none"
       d="m 363.86531,127.22954 c 3.65119,-0.98907 7.5845,-1.13962 11.352,-1.77936 2.89992,-0.49243 2.84585,-0.90888 6.11262,-1.18624 1.15533,-0.0981 2.33762,0.0981 3.49293,0 1.19088,-0.10112 2.31609,-0.43325 3.49293,-0.59313 0.28542,-0.0387 0.58216,0 0.87323,0 0.87323,0 1.76343,-0.11631 2.61969,0 2.36526,0.32131 1.43497,0.94067 3.49293,1.77937 0.78929,0.32166 1.7964,0.31352 2.61969,0.59311 0.93869,0.3188 1.71976,0.8195 2.6197,1.18625 0.55811,0.22745 1.18834,0.36567 1.74646,0.59312 0.89994,0.36676 1.62405,0.96082 2.6197,1.18623 0.82841,0.18757 1.77253,-0.14385 2.61969,0 0.39936,0.0678 0.50504,0.46809 0.87323,0.59313 0.19571,0.0664 3.28542,0 3.49293,0 2.61969,0 5.42676,0.66085 7.85908,0 1.11431,-0.30274 0.42752,-1.61562 0.87323,-2.37248 0.28283,-0.48028 3.45508,-1.76008 3.49293,-1.77936 0.32931,-0.16776 0.58215,-0.39541 0.87323,-0.59312 1.16431,-0.39542 2.3767,-0.73134 3.49292,-1.18625 0.35298,-0.14385 0.48271,-0.50469 0.87324,-0.59311 0.55228,-0.12505 1.16431,0 1.74646,0 0.86343,0 2.73389,-0.12889 3.49293,0 0.89297,0.15163 1.7267,0.44149 2.61969,0.59311 0.59427,0.10092 2.14213,-0.16218 2.61969,0 0.36819,0.12505 0.50505,0.46809 0.87324,0.59313 0.26034,0.0884 0.58214,0 0.87323,0 0.29107,0 0.58215,0 0.87323,0"
       id="path3131"
       inkscape:connector-curvature="0"
       inkscape:export-filename="/home/jrbauer/Desktop/path3149-4-1.png"
       inkscape:export-xdpi="90"
       inkscape:export-ydpi="90" />
    <path
       style="fill:none;stroke:#000000;stroke-width:2.508;stroke-linecap:butt;stroke-linejoin:miter;stroke-opacity:1;stroke-miterlimit:4;stroke-dasharray:none"
       d="m 324.56989,146.20939 c 0.87324,-0.79083 1.28976,-1.971 2.6197,-2.37248 1.59593,-0.48178 3.52109,0.2122 5.23938,0 9.23209,-2.50827 -0.0127,-0.42243 7.85908,-1.18624 0.91122,-0.0884 1.74647,-0.39542 2.6197,-0.59313 0.87324,-0.1977 1.76507,-0.36092 2.6197,-0.59312 0.60432,-0.16418 1.11503,-0.48589 1.74646,-0.59311 0.56477,-0.0959 1.16431,0 1.74646,0 0.87324,0 1.74646,0 2.6197,0 1.45538,0 2.96676,-0.27158 4.36616,0 1.0091,0.19583 1.71976,0.81948 2.61968,1.18623 4.22332,1.72115 1.09452,-1.03594 6.98586,2.96561 0.20583,0.1398 0,0.39541 0,0.59312 0.58216,0.39541 0.98206,0.97856 1.74646,1.18623 0.81078,0.22028 1.77254,-0.14385 2.6197,0 0.39935,0.0678 0.50504,0.4681 0.87323,0.59313 0.26034,0.0884 0.6674,-0.1398 0.87323,0 0.20583,0.1398 -0.26034,0.5047 0,0.59313 0.5207,0.17682 1.16431,0 1.74646,0 1.16431,0 2.32862,0 3.49293,0 0.29108,0 0.74306,0.17682 0.87323,0 0.26035,-0.35368 -0.41164,-0.90666 0,-1.18626 0.20309,-0.13794 4.75955,-0.99067 5.23939,-1.18623 2.05797,-0.83869 1.12766,-1.45806 3.49293,-1.77936 1.14169,-0.15509 2.32862,0 3.49292,0 0.29107,0 0.66741,0.1398 0.87323,0 0.20583,-0.1398 -0.20582,-0.45333 0,-0.59312 0.20583,-0.13981 0.58215,0 0.87323,0 0.29108,0 0.58216,0 0.87324,0"
       id="path3135"
       inkscape:connector-curvature="0"
       inkscape:export-filename="/home/jrbauer/Desktop/path3149-4-1.png"
       inkscape:export-xdpi="90"
       inkscape:export-ydpi="90" />
    <path
       style="fill:none;stroke:#000000;stroke-width:2.508;stroke-linecap:butt;stroke-linejoin:miter;stroke-opacity:1;stroke-miterlimit:4;stroke-dasharray:none"
       d="m 440.70968,108.24969 c 0.16583,-0.18774 2.81531,-3.73049 4.36615,-4.15185 0.81078,-0.22027 1.75834,0.0975 2.6197,0 0.90793,-0.10278 1.74646,-0.3954 2.61969,-0.59311 0.87323,-0.19771 1.71711,-0.47051 2.6197,-0.59312 0.94564,-0.12846 5.17916,0 6.11262,0 0.57364,0 3.28758,-0.0698 3.49292,0 8.14888,2.76746 -3.31943,-0.31686 2.6197,2.37248 0.48437,0.21934 1.20594,-0.14686 1.74646,0 0.97443,0.26474 1.62406,0.96082 2.6197,1.18624 0.0374,0.008 4.19926,-0.0756 4.36615,0 0.68502,0.31018 1.16431,0.79083 1.74647,1.18624 0.29106,0.1977 0.50503,0.46808 0.87322,0.59312 4.30617,1.46243 4.61681,1.18624 8.73232,1.18624 0.58215,0 1.1643,0 1.74646,0 0.58215,0 1.19418,0.12504 1.74646,0 0.39052,-0.0884 0.58215,-0.39541 0.87324,-0.59312 0.58214,-0.39541 1.06144,-0.87605 1.74646,-1.18624 0.24218,-0.10967 0.59084,0.0479 0.87324,0 0.89297,-0.15163 1.79639,-0.31352 2.61968,-0.59312 0.36818,-0.12504 0.50505,-0.46808 0.87324,-0.59312 0.26034,-0.0884 0.66741,0.1398 0.87323,0 0.20581,-0.1398 -0.20582,-0.45332 0,-0.59312 0.20581,-0.1398 0.6674,0.1398 0.87323,0 0.20582,-0.1398 -0.20583,-0.45333 0,-0.59312 1.1643,-0.79083 0.87324,0.98853 0.87324,-0.59312"
       id="path3141"
       inkscape:connector-curvature="0"
       inkscape:export-filename="/home/jrbauer/Desktop/path3149-4-1.png"
       inkscape:export-xdpi="90"
       inkscape:export-ydpi="90" />
    <path
       style="fill:none;stroke:#000000;stroke-width:2.508;stroke-linecap:butt;stroke-linejoin:miter;stroke-opacity:1;stroke-miterlimit:4;stroke-dasharray:none"
       d="m 442.45614,142.05754 c 1.1643,-0.39541 2.40981,-0.69578 3.49292,-1.18623 0.68503,-0.3102 1.08784,-0.85072 1.74647,-1.18625 0.52068,-0.26525 1.16431,-0.3954 1.74646,-0.59312 1.16431,-0.39541 2.355,-0.75684 3.49293,-1.18623 1.67871,-0.63346 5.76537,-2.49158 7.85908,-2.96561 0.55228,-0.12503 1.17561,0.0776 1.74646,0 0.90259,-0.12261 1.72671,-0.44148 2.6197,-0.59313 0.28239,-0.0479 0.58214,0 0.87323,0 0.87323,0 1.74646,0 2.61969,0 0.58215,0 1.17561,-0.0776 1.74646,0 1.17683,0.15988 2.31609,0.43326 3.49293,0.59313 1.29367,0.17574 1.94051,-0.52722 3.49293,0 0.58214,0.19771 0.41299,0.87364 0.87323,1.18624 1.02911,0.699 2.24494,1.27077 3.49293,1.77937 0.24959,0.10171 0.6674,-0.13981 0.87322,0 0.46024,0.3126 0.5122,0.8184 0.87324,1.18623 0.22834,0.23265 0.58214,0.39542 0.87323,0.59312 0.29107,0.19771 0.50504,0.46809 0.87323,0.59313 0.44184,0.15005 5.55555,-0.12613 6.11262,0 0.27613,0.0625 -0.27615,0.5306 0,0.59312 0.82841,0.18755 1.74646,0 2.6197,0 2.5241,0 4.64449,0.20203 6.98584,-0.59312 0.36818,-0.12504 0.58215,-0.39542 0.87324,-0.59313 0.29107,-0.1977 0.64488,-0.36047 0.87323,-0.59312 0.36103,-0.36783 0.41299,-0.87363 0.87323,-1.18623 0.20582,-0.13981 0.74305,0.17683 0.87324,0 1.01875,-1.38395 -1.09155,-1.18625 0.87322,-1.18625"
       id="path3143"
       inkscape:connector-curvature="0"
       inkscape:export-filename="/home/jrbauer/Desktop/path3149-4-1.png"
       inkscape:export-xdpi="90"
       inkscape:export-ydpi="90" />
    <path
       style="fill:none;stroke:#000000;stroke-width:5;stroke-linecap:butt;stroke-linejoin:miter;stroke-opacity:1;stroke-miterlimit:4;stroke-dasharray:none"
       d="m 386.83512,314.01863 c 25.2742,92.15 1.12436,139.17864 1.01015,139.40105 39.22759,4.71404 118.35621,0.84179 117.68278,14.14213 3.87225,9.09138 -131.15147,28.28428 -192.93914,40.40611"
       id="path2991"
       inkscape:connector-curvature="0"
       sodipodi:nodetypes="cccc"
       inkscape:export-filename="/home/jrbauer/Desktop/path3149-4-1.png"
       inkscape:export-xdpi="90"
       inkscape:export-ydpi="90" />
    <path
       style="fill:none;stroke:#000000;stroke-width:5;stroke-linecap:butt;stroke-linejoin:miter;stroke-opacity:1;stroke-miterlimit:4;stroke-dasharray:none"
       d="m 387.84527,453.41968 c -46.47646,10.98659 -123.20858,13.95145 -109.09648,27.77919 11.64958,11.41483 140.74793,14.3105 205.06098,22.22336"
       id="path2993"
       inkscape:connector-curvature="0"
       sodipodi:nodetypes="csc"
       inkscape:export-filename="/home/jrbauer/Desktop/path3149-4-1.png"
       inkscape:export-xdpi="90"
       inkscape:export-ydpi="90" />
    <path
       style="fill:none;stroke:#000000;stroke-width:5;stroke-linecap:butt;stroke-linejoin:miter;stroke-opacity:1;stroke-miterlimit:4;stroke-dasharray:none"
       d="m 397.44173,366.04148 c 85.57577,-9.322 112.60384,-24.25938 137.38074,-64.64976"
       id="path2995"
       inkscape:connector-curvature="0"
       sodipodi:nodetypes="cc"
       inkscape:export-filename="/home/jrbauer/Desktop/path3149-4-1.png"
       inkscape:export-xdpi="90"
       inkscape:export-ydpi="90" />
    <path
       style="fill:none;stroke:#000000;stroke-width:5;stroke-linecap:butt;stroke-linejoin:miter;stroke-opacity:1;stroke-miterlimit:4;stroke-dasharray:none"
       d="M 395.9265,366.04148 C 332.45062,357.80335 277.66294,344.32752 251.97976,296.84603"
       id="path2997"
       inkscape:connector-curvature="0"
       sodipodi:nodetypes="cc"
       inkscape:export-filename="/home/jrbauer/Desktop/path3149-4-1.png"
       inkscape:export-xdpi="90"
       inkscape:export-ydpi="90" />
    <path
       sodipodi:type="spiral"
       style="fill:none;stroke:#000000;stroke-width:4.31490045;stroke-linecap:butt;stroke-linejoin:miter;stroke-opacity:1;stroke-miterlimit:4;stroke-dasharray:none"
       id="path3127"
       sodipodi:cx="321.42856"
       sodipodi:cy="77.362183"
       sodipodi:expansion="1"
       sodipodi:revolution="2.01"
       sodipodi:radius="48.235447"
       sodipodi:argument="-5.5658545"
       sodipodi:t0="0.007871205"
       d="m 321.68848,77.638931 c 2.25498,2.935837 -2.82067,4.684922 -4.90976,4.090404 -5.67404,-1.614733 -6.33878,-8.972861 -3.82454,-13.390072 4.41422,-7.755251 15.06861,-8.331146 21.87038,-3.55869 9.90238,6.947997 10.38154,21.241956 3.29284,30.350701 -9.40589,12.086256 -27.44358,12.457296 -38.83102,3.026976 -14.28884,-11.833067 -14.54632,-33.658896 -2.76112,-47.31133 14.24497,-16.501927 39.882,-16.643081 55.79165,-2.495262 18.20346,16.187618 18.81795,44.67365 3.39737,62.939092"
       transform="matrix(1.1795667,0,0,1.1732192,0.49872814,177.41983)"
       inkscape:export-filename="/home/jrbauer/Desktop/path3149-4-1.png"
       inkscape:export-xdpi="90"
       inkscape:export-ydpi="90" />
    <path
       style="fill:none;stroke:#000000;stroke-width:2.5;stroke-linecap:butt;stroke-linejoin:miter;stroke-opacity:1;stroke-miterlimit:4;stroke-dasharray:none"
       d="M 447.14285,63.790756 C 470,22.362185 470.41843,23.704098 470.41843,23.704098"
       id="path3149"
       inkscape:connector-curvature="0"
       sodipodi:nodetypes="cc"
       inkscape:export-xdpi="90"
       inkscape:export-ydpi="90" />
    <path
       style="fill:none;stroke:#000000;stroke-width:2.5;stroke-linecap:butt;stroke-linejoin:miter;stroke-opacity:1;stroke-miterlimit:4;stroke-dasharray:none"
       d="m 551.16076,82.456019 c 39.81438,-24.93437 40.82453,-25.439446 40.82453,-25.439446"
       id="path3149-4"
       inkscape:connector-curvature="0"
       sodipodi:nodetypes="cc"
       inkscape:export-xdpi="90"
       inkscape:export-ydpi="90" />
    <path
       style="fill:none;stroke:#000000;stroke-width:2.5;stroke-linecap:butt;stroke-linejoin:miter;stroke-opacity:1;stroke-miterlimit:4;stroke-dasharray:none"
       d="M 222.44277,81.193333 C 182.62839,56.258963 181.61824,55.753883 181.61824,55.753883"
       id="path3149-4-3"
       inkscape:connector-curvature="0"
       sodipodi:nodetypes="cc"
       inkscape:export-filename="/home/jrbauer/Desktop/path3149-4-1.png"
       inkscape:export-xdpi="90"
       inkscape:export-ydpi="90" />
    <path
       style="fill:none;stroke:#000000;stroke-width:2.5;stroke-linecap:butt;stroke-linejoin:miter;stroke-opacity:1;stroke-miterlimit:4;stroke-dasharray:none"
       d="m 179.59794,193.32026 c 39.81438,-24.93437 40.82453,-25.43944 40.82453,-25.43944"
       id="path3149-4-0"
       inkscape:connector-curvature="0"
       sodipodi:nodetypes="cc"
       inkscape:export-filename="/home/jrbauer/Desktop/path3149-4-1.png"
       inkscape:export-xdpi="90"
       inkscape:export-ydpi="90" />
    <path
       style="fill:none;stroke:#000000;stroke-width:2.5;stroke-linecap:butt;stroke-linejoin:miter;stroke-opacity:1;stroke-miterlimit:4;stroke-dasharray:none"
       d="m 554.36453,168.89097 c 39.81438,24.93437 40.82453,25.43944 40.82453,25.43944"
       id="path3149-4-1"
       inkscape:connector-curvature="0"
       sodipodi:nodetypes="cc"
       inkscape:export-xdpi="90"
       inkscape:export-ydpi="90" />
    <path
       style="fill:none;stroke:#000000;stroke-width:2.5;stroke-linecap:butt;stroke-linejoin:miter;stroke-opacity:1;stroke-miterlimit:4;stroke-dasharray:none"
       d="M 337.35208,59.550852 C 314.49493,18.122281 314.0765,19.464194 314.0765,19.464194"
       id="path3149-5"
       inkscape:connector-curvature="0"
       sodipodi:nodetypes="cc"
       inkscape:export-xdpi="90"
       inkscape:export-ydpi="90" />
    <path
       style="fill:none;stroke:#000000;stroke-width:2.5;stroke-linecap:butt;stroke-linejoin:miter;stroke-opacity:1;stroke-miterlimit:4;stroke-dasharray:none"
       d="m 328.78065,186.60208 c -22.85715,41.42857 -23.27558,40.08666 -23.27558,40.08666"
       id="path3149-5-4"
       inkscape:connector-curvature="0"
       sodipodi:nodetypes="cc"
       inkscape:export-xdpi="90"
       inkscape:export-ydpi="90" />
    <path
       style="fill:none;stroke:#000000;stroke-width:2.5;stroke-linecap:butt;stroke-linejoin:miter;stroke-opacity:1;stroke-miterlimit:4;stroke-dasharray:none"
       d="M 471.63778,222.408 C 448.78063,180.97943 448.3622,182.32134 448.3622,182.32134"
       id="path3149-5-3"
       inkscape:connector-curvature="0"
       sodipodi:nodetypes="cc"
       inkscape:export-xdpi="90"
       inkscape:export-ydpi="90" />
  </g>
</svg>
